<svg width="146" height="31" viewBox="0 0 146 31" fill="none" xmlns="http://www.w3.org/2000/svg">
	<path d="M0.525391 30.0005V29.2445L3.83739 28.7045V2.49647L0.525391 1.99247V1.20047H11.1094V1.99247L7.79739 2.49647V29.1365H18.5614L21.5134 21.2165H22.4854V30.0005H0.525391Z" fill="currentColor" />
	<path d="M39.6228 30.7205C37.0068 30.7205 34.6668 30.0845 32.6028 28.8125C30.5388 27.5405 28.9308 25.7645 27.7788 23.4845C26.6268 21.1805 26.0508 18.5525 26.0508 15.6005C26.0508 12.6485 26.6268 10.0325 27.7788 7.75247C28.9308 5.44847 30.5388 3.66047 32.6028 2.38847C34.6668 1.11647 37.0068 0.480469 39.6228 0.480469C42.2388 0.480469 44.5788 1.11647 46.6428 2.38847C48.7068 3.66047 50.3148 5.44847 51.4668 7.75247C52.6188 10.0325 53.1948 12.6485 53.1948 15.6005C53.1948 18.5525 52.6188 21.1805 51.4668 23.4845C50.3148 25.7645 48.7068 27.5405 46.6428 28.8125C44.5788 30.0845 42.2388 30.7205 39.6228 30.7205ZM39.6228 29.8925C41.3508 29.8925 42.8988 29.4365 44.2668 28.5245C45.6588 27.6125 46.7508 26.2925 47.5428 24.5645C48.3348 22.8125 48.7308 20.7485 48.7308 18.3725V12.8285C48.7308 10.4525 48.3348 8.40047 47.5428 6.67247C46.7508 4.92047 45.6588 3.58847 44.2668 2.67647C42.8988 1.76447 41.3508 1.30847 39.6228 1.30847C37.8708 1.30847 36.3108 1.76447 34.9428 2.67647C33.5748 3.58847 32.4948 4.92047 31.7028 6.67247C30.9108 8.40047 30.5148 10.4525 30.5148 12.8285V18.3725C30.5148 20.7485 30.9108 22.8125 31.7028 24.5645C32.4948 26.2925 33.5748 27.6125 34.9428 28.5245C36.3108 29.4365 37.8708 29.8925 39.6228 29.8925Z" fill="currentColor" />
	<path d="M78.5858 30.3605C77.2418 30.3605 76.2338 30.0365 75.5618 29.3885C74.8898 28.7405 74.4338 27.6365 74.1938 26.0765L73.5098 21.2525C73.2698 19.6205 72.7058 18.3485 71.8178 17.4365C70.9538 16.5005 69.5978 16.0325 67.7498 16.0325H64.9418V28.7045L68.2538 29.2445V30.0005H57.6698V29.2445L60.9818 28.7045V2.49647L57.6698 1.99247V1.20047H67.7498C71.6618 1.20047 74.4938 1.81247 76.2458 3.03647C77.9978 4.26047 78.8738 6.12047 78.8738 8.61647C78.8738 12.7445 76.3778 15.1325 71.3858 15.7805V15.9965C73.2338 16.2605 74.7098 16.9205 75.8138 17.9765C76.9418 19.0325 77.6498 20.4365 77.9378 22.1885L78.4058 25.2845C78.5978 26.6285 78.8138 27.5405 79.0538 28.0205C79.3178 28.5005 79.7138 28.7405 80.2418 28.7405C80.6018 28.7405 80.9858 28.6325 81.3938 28.4165C81.8018 28.1765 82.1858 27.8765 82.5458 27.5165L83.1578 28.1645C82.4618 28.9565 81.7418 29.5205 80.9978 29.8565C80.2538 30.1925 79.4498 30.3605 78.5858 30.3605ZM68.9738 15.1685C70.7258 15.1685 72.0818 14.6405 73.0418 13.5845C74.0258 12.5045 74.5178 10.9205 74.5178 8.83247V8.07647C74.5178 4.09247 72.2618 2.10047 67.7498 2.10047H64.9418V15.1685H68.9738Z" fill="currentColor" />
	<path d="M84.906 30.0005V29.2445L88.218 28.7045V2.49647L84.906 1.99247V1.20047H106.578V9.44447H105.606L102.834 2.10047H92.178V15.0605H96.858L98.982 9.84047H99.918V21.2165H98.982L96.822 15.9245H92.178V29.1365H103.482L106.434 21.2165H107.37V30.0005H84.906Z" fill="currentColor" />
	<path d="M126.907 30.3605L116.179 2.49647V27.8045L119.635 29.2445V30.0005H111.931V29.2445L115.315 27.8045V2.49647L112.003 1.99247V1.20047H119.959L128.995 24.3125L138.211 1.20047H145.483V1.99247L142.171 2.49647V28.7045L145.483 29.2445V30.0005H134.899V29.2445L138.211 28.7045V3.57647L127.555 30.3605H126.907Z" fill="currentColor" />
</svg>
