<?xml version="1.0" encoding="utf-8"?><svg viewBox="0 0 146 31" xmlns="http://www.w3.org/2000/svg" xmlns:xlink="http://www.w3.org/1999/xlink"><style>:root>svg{display:none}:root>svg:target{display:block}</style><svg fill="none" viewBox="0 0 146 31" id="logo" xmlns="http://www.w3.org/2000/svg"><path d="M.525 30v-.756l3.312-.54V2.497L.525 1.992V1.2H11.11v.792l-3.312.504v26.64h10.764l2.952-7.92h.972V30H.525zM39.623 30.72c-2.616 0-4.956-.636-7.02-1.907-2.064-1.272-3.672-3.048-4.824-5.328-1.152-2.305-1.728-4.933-1.728-7.884 0-2.953.576-5.569 1.728-7.849 1.152-2.304 2.76-4.092 4.824-5.364C34.667 1.116 37.007.48 39.623.48c2.616 0 4.956.636 7.02 1.908 2.064 1.272 3.672 3.06 4.824 5.364 1.152 2.28 1.728 4.897 1.728 7.849 0 2.951-.576 5.58-1.728 7.883-1.152 2.28-2.76 4.056-4.824 5.328-2.064 1.272-4.404 1.909-7.02 1.909zm0-.828c1.728 0 3.276-.456 4.644-1.367 1.392-.912 2.484-2.232 3.276-3.96.792-1.753 1.188-3.817 1.188-6.193V12.83c0-2.377-.396-4.429-1.188-6.157-.792-1.752-1.884-3.084-3.276-3.996-1.368-.912-2.916-1.368-4.644-1.368-1.752 0-3.312.456-4.68 1.368-1.368.912-2.448 2.244-3.24 3.996-.792 1.728-1.188 3.78-1.188 6.157v5.543c0 2.377.396 4.44 1.188 6.192.792 1.729 1.872 3.049 3.24 3.96 1.368.912 2.928 1.368 4.68 1.368zM78.586 30.36c-1.344 0-2.352-.323-3.024-.971-.672-.648-1.128-1.752-1.368-3.313l-.684-4.823c-.24-1.633-.804-2.904-1.692-3.817-.864-.936-2.22-1.404-4.068-1.404h-2.808v12.672l3.312.54V30H57.67v-.756l3.312-.54V2.497l-3.312-.504V1.2h10.08c3.912 0 6.744.612 8.496 1.836 1.752 1.224 2.628 3.084 2.628 5.58 0 4.129-2.496 6.517-7.488 7.165v.215c1.848.264 3.324.925 4.428 1.98 1.128 1.056 1.836 2.46 2.124 4.213l.468 3.096c.192 1.343.408 2.256.648 2.735.264.48.66.72 1.188.72.36 0 .744-.107 1.152-.323.408-.24.792-.54 1.152-.9l.612.648c-.696.791-1.416 1.355-2.16 1.692a5.791 5.791 0 01-2.412.503zM68.974 15.17c1.752 0 3.108-.529 4.068-1.585.984-1.08 1.476-2.663 1.476-4.752v-.756c0-3.984-2.256-5.976-6.768-5.976h-2.808V15.17h4.032zM84.906 30v-.756l3.312-.54V2.497l-3.312-.504V1.2h21.672v8.244h-.972L102.834 2.1H92.178v12.96h4.68l2.124-5.22h.936v11.377h-.936l-2.16-5.292h-4.644v13.212h11.304l2.952-7.92h.936V30H84.906zM126.907 30.36L116.179 2.496v25.309l3.456 1.44V30h-7.704v-.756l3.384-1.44V2.497l-3.312-.504V1.2h7.956l9.036 23.113L138.211 1.2h7.272v.792l-3.312.504v26.209l3.312.54V30h-10.584v-.756l3.312-.54V3.576L127.555 30.36h-.648z" fill="currentColor"/></svg></svg>