<?xml version="1.0" encoding="utf-8"?><svg viewBox="0 0 40 38" xmlns="http://www.w3.org/2000/svg" xmlns:xlink="http://www.w3.org/1999/xlink"><style>:root>svg{display:none}:root>svg:target{display:block}</style><svg fill="none" viewBox="0 0 40 38" id="header-info-check" xmlns="http://www.w3.org/2000/svg"><g clip-path="url(#aclip0_2008_86)"><path d="M36.949 19c0 9.942-8.049 18-17.975 18C9.05 37 1 28.942 1 19S9.049 1 18.974 1C28.9 1 36.95 9.058 36.95 19z" stroke="#EFCFAD" stroke-width="2"/><path d="M37.02 13.119a18.943 18.943 0 00-2.237-4.629l-16.61 17.323.034 1.928.784-.005L37.02 13.119z" fill="#A4907D"/><path d="M40 6.163c-.243-1.26-2.565-2.054-2.565-2.054-.461-.457-3.127 2.111-3.59 2.568L18.537 22.596l-6.742-7.703c-.462-.457-1.589-.97-2.05-.513L7.55 15.848a1.161 1.161 0 000 1.654l10.01 9.903c.267.264.628.37.976.33.348.04.71-.066.976-.33L37.98 9.135c.462-.457 2.286-1.593 2.02-2.972z" fill="#fff"/><path d="M19.512 27.404l18.466-18.27C39.487 8.217 40.461 6.62 40 6.163c-.462-.458-2.574.77-2.574.77L18.43 25.643 7.968 15.43l-.418.415a1.161 1.161 0 000 1.654l10.01 9.904c.266.264.628.37.976.33.347.04.709-.066.976-.33z" fill="#EFCFAD"/></g><defs><clipPath id="aclip0_2008_86"><path fill="#fff" d="M0 0h40v38H0z"/></clipPath></defs></svg></svg>