<svg width="40" height="38" viewBox="0 0 40 38" fill="none" xmlns="http://www.w3.org/2000/svg">
<g clip-path="url(#clip0_2008_86)">
<path d="M36.9487 19C36.9487 28.9424 28.9 37 18.9744 37C9.04867 37 1 28.9424 1 19C1 9.0576 9.04867 1 18.9744 1C28.9 1 36.9487 9.0576 36.9487 19Z" stroke="#EFCFAD" stroke-width="2"/>
<path d="M37.0192 13.1186C36.4818 11.4645 35.7259 9.91029 34.7828 8.49023L18.1738 25.8129L18.2072 27.7407L18.9912 27.7357L37.0192 13.1186Z" fill="#A4907D"/>
<path d="M39.9996 6.1629C39.7567 4.9021 37.4355 4.10895 37.4355 4.10895C36.9737 3.65181 34.3076 6.2201 33.8458 6.67724L18.536 22.5959L11.7945 14.8932C11.3319 14.436 10.2054 13.9225 9.74319 14.3797L7.5495 15.8476C7.08767 16.3043 7.08767 17.0453 7.5495 17.5021L17.56 27.4053C17.8268 27.6694 18.1884 27.7758 18.536 27.7347C18.8836 27.7754 19.2453 27.6694 19.5121 27.4053L37.9787 9.13562C38.4405 8.67848 40.2653 7.54185 39.9996 6.1629Z" fill="white"/>
<path d="M19.5117 27.4038L37.9783 9.13417C39.4868 8.21662 40.4614 6.6197 39.9996 6.16256C39.5378 5.70542 37.4261 6.93283 37.4261 6.93283L18.4302 25.6421L7.96846 15.4308L7.5495 15.8457C7.08767 16.3025 7.08767 17.0435 7.5495 17.5003L17.5596 27.4038C17.8264 27.6679 18.188 27.7743 18.5357 27.7333C18.8833 27.7743 19.2449 27.6683 19.5117 27.4038Z" fill="#EFCFAD"/>
</g>
<defs>
<clipPath id="clip0_2008_86">
<rect width="40" height="38" fill="white"/>
</clipPath>
</defs>
</svg>
